<svg xmlns="http://www.w3.org/2000/svg" width="100%" height="100%" viewBox="0 0 421 421"><g transform="matrix(1,0,0,1,-409.97874,-663.915748)"><g transform="matrix(1.260342,0,0,1.260342,161.584666,-953.314622)"><rect x="197.085" y="1283.168" width="333.402" height="333.402" fill="#1B211A"/></g><g transform="matrix(0.410366,0,0,0.410366,409.971437,644.210885)"><path d="M731.429,512L800,512L736,736L288,736L224,512L292.571,512L256,384L372.571,384L336,256L688,256L651.429,384L768,384L731.429,512Z" fill="#EBD5AB"/><path d="M352,768L672,768L640,864L384,864L352,768Z" fill="#EBD5AB" fill-rule="nonzero"/></g></g></svg>
